<svg id="visual" viewBox="0 0 675 900" width="675" height="900" xmlns="http://www.w3.org/2000/svg" xmlns:xlink="http://www.w3.org/1999/xlink" version="1.1"><path d="M0 272L18.8 263.8C37.7 255.7 75.3 239.3 112.8 239.8C150.3 240.3 187.7 257.7 225.2 272C262.7 286.3 300.3 297.7 337.8 290.8C375.3 284 412.7 259 450.2 257C487.7 255 525.3 276 562.8 268.2C600.3 260.3 637.7 223.7 656.3 205.3L675 187L675 0L656.3 0C637.7 0 600.3 0 562.8 0C525.3 0 487.7 0 450.2 0C412.7 0 375.3 0 337.8 0C300.3 0 262.7 0 225.2 0C187.7 0 150.3 0 112.8 0C75.3 0 37.7 0 18.8 0L0 0Z" fill="#343a40" stroke-linecap="round" stroke-linejoin="miter"></path></svg>