<svg id="visual" viewBox="0 0 675 900" width="675" height="900" xmlns="http://www.w3.org/2000/svg" xmlns:xlink="http://www.w3.org/1999/xlink" version="1.1"><path d="M0 425L16 408.7C32 392.3 64 359.7 96.2 347C128.3 334.3 160.7 341.7 192.8 355.2C225 368.7 257 388.3 289.2 391.5C321.3 394.7 353.7 381.3 385.8 380.8C418 380.3 450 392.7 482.2 394C514.3 395.3 546.7 385.7 578.8 366.2C611 346.7 643 317.3 659 302.7L675 288L675 0L659 0C643 0 611 0 578.8 0C546.7 0 514.3 0 482.2 0C450 0 418 0 385.8 0C353.7 0 321.3 0 289.2 0C257 0 225 0 192.8 0C160.7 0 128.3 0 96.2 0C64 0 32 0 16 0L0 0Z" fill="#20caf5" stroke-linecap="round" stroke-linejoin="miter"></path></svg>